<svg xmlns="http://www.w3.org/2000/svg" width="122.962" height="71.217" viewBox="0 0 122.962 71.217">
  <g id="Group_38327" data-name="Group 38327" transform="translate(-311.801 126.102)">
    <path id="Path_7" data-name="Path 7" d="M122.309,87.827c0,.945-.209,1.638,1.157,1.638.852-.126.819-.693,1.028-1.953.241-.693.948-1.984,1.639-3.622.144-.22.434-.378.627-.6-.354,3.654-5.752,13.985-5.752,14.489,0,.85.579.882,1.221,1.2a1.126,1.126,0,0,1,.257.157c.241.756,1.366,1.512,1.7.567a1.105,1.105,0,0,1,.739.126,28.7,28.7,0,0,0-1.3,4.315c.627.41.5.662,1.494.756a11.651,11.651,0,0,1-.675,2.866c-.37,1.229-.289,2.11.659,2.2.868,0,1.35-1.764,1.671-3.024.129-.535.161-.693.305-1.2.305-1.071,1.077-3.748,1.237-4.851,1.88,0,1.526-.41,2.314-3.37,4.081-14.143,8.307-28.38,12.388-42.522.225-.756.4-1.229.627-1.984.836-2.614,1.285-5.418,2.089-8.221.289-.913.466-1.8.755-2.709.209-.661.016-1.984-.627-2.3-1.269-.189-2.025.283-2.137-1.008-.5,0-.9-.031-1.4-.031-.08.157.032.661-.016.756-.771.6.032.945-.755,2.394-1.751,5.418-3.487,10.867-5.238,16.284l-8.645,17.607c-.128.252-.193.41-.289.63-1.06,2.173-2.137,4.63-3.2,6.8-.562.693-.675.157-1.2.787A12.3,12.3,0,0,0,122.63,86C122.5,86.756,122.309,87.48,122.309,87.827Z" transform="translate(190.794 -164.855)" fill="#d7031d" fill-rule="evenodd"/>
    <g id="Group_3" data-name="Group 3" transform="translate(344.526 -107.572)">
      <g id="Group_1" data-name="Group 1">
        <path id="Path_1" data-name="Path 1" d="M98.446,437.646l2.346.049V427.331c2.3,0,1.533-.46,3.487,2.467l5.236,7.9,2.966-.005-6.926-10.475c.4-.318,1.728-.651,2.33-.989a4.339,4.339,0,0,0,1.753-1.609c1.129-1.819,1.395-7.687-4.522-7.712-2.21-.009-4.469-.034-6.675.008l0,20.733Zm2.347-11.413.062-8.229c3.827,0,6.975-.33,6.91,4.1C107.7,426.709,103.332,426.234,100.794,426.234Z" transform="translate(-82.44 -416.575)" fill="#060707" fill-rule="evenodd"/>
        <path id="Path_2" data-name="Path 2" d="M232.5,437.664l1.305.058V420.289l11.276,17.424,1.849-.01V416.922h-1.278l-.031,16.426c-1.811-2.618-3.52-5.587-5.23-8.149l-5.271-8.275-2.626,0Z" transform="translate(-156.699 -416.593)" fill="#060707" fill-rule="evenodd"/>
        <path id="Path_3" data-name="Path 3" d="M165,436.182l-.013-8.912-2.344-.063v8.408a9.671,9.671,0,0,1-5.107.74,7.944,7.944,0,0,1-4.111-1.945,10.18,10.18,0,0,1-3.06-8.819c.591-5.545,5.174-9.255,9.556-7.881a9.48,9.48,0,0,1,3.593,2.339,5.412,5.412,0,0,0,1.039-1.182c-.441-.239-1.137-.944-2.206-1.562a9.844,9.844,0,0,0-9.109,0,10.6,10.6,0,0,0-5.781,9.249C147.087,436.29,156.253,440.194,165,436.182Z" transform="translate(-109.584 -416.184)" fill="#060707" fill-rule="evenodd"/>
        <path id="Path_4" data-name="Path 4" d="M197.12,437.672l2.375-.025q0-3.488,0-6.957c0-3.155-.158-2.061,1.906-5.253.93-1.438,1.821-2.743,2.774-4.212l1.376-2.123a18.642,18.642,0,0,0,1.385-2.213l-1.58,0-6.221,9.5c-.016.017-.055.052-.069.066s-.046.044-.07.064l-5.386-8.587c-.75-1.187-.149-1.132-3.559-1.033,1.266,2.311,4.994,8.265,6.6,10.755.68,1.055.469,1.528.469,3.033Z" transform="translate(-133.185 -416.556)" fill="#060707" fill-rule="evenodd"/>
        <path id="Path_5" data-name="Path 5" d="M62.582,418.026H68.3v19.691h2.342l0-19.7,5.761.009-.019-1.1H62.569Z" transform="translate(-62.569 -416.596)" fill="#060707" fill-rule="evenodd"/>
        <path id="Path_6" data-name="Path 6" d="M134.3,437.661l2.346.049V416.915l-2.35.009Z" transform="translate(-102.298 -416.589)" fill="#060707" fill-rule="evenodd"/>
      </g>
      <path id="Path_8" data-name="Path 8" d="M67.889,498.657a7,7,0,0,1-.817.164,5.813,5.813,0,0,1-.788.063,2.437,2.437,0,0,1-1.839-.653,2.916,2.916,0,0,1-.63-2.088v-4.2h-.9v-1.117h.9v-2.277h1.334v2.277h2.74v1.117h-2.74v3.608c0,.415.01.742.029.976a1.558,1.558,0,0,0,.2.655.942.942,0,0,0,.426.416,2.014,2.014,0,0,0,.831.131,2.538,2.538,0,0,0,.677-.1,4.848,4.848,0,0,0,.51-.162h.07Z" transform="translate(-62.761 -456.267)" fill="#191717" fill-rule="evenodd"/>
      <path id="Path_9" data-name="Path 9" d="M83.615,497.468H77.786a3.33,3.33,0,0,0,.22,1.266,2.334,2.334,0,0,0,.6.884,2.411,2.411,0,0,0,.873.508,3.484,3.484,0,0,0,1.116.169,4.407,4.407,0,0,0,1.624-.321,4.04,4.04,0,0,0,1.165-.636h.07v1.452a11.105,11.105,0,0,1-1.373.474,5.535,5.535,0,0,1-1.472.191,4.243,4.243,0,0,1-3.069-1.063,3.993,3.993,0,0,1-1.1-3.021A4.323,4.323,0,0,1,77.5,494.3a3.623,3.623,0,0,1,2.784-1.138,3.2,3.2,0,0,1,2.467.933,3.755,3.755,0,0,1,.868,2.651v.723Zm-1.29-1.015a2.341,2.341,0,0,0-.529-1.617,2.032,2.032,0,0,0-1.583-.572,2.321,2.321,0,0,0-1.706.628,2.449,2.449,0,0,0-.72,1.561Z" transform="translate(-70.252 -458.825)" fill="#191717" fill-rule="evenodd"/>
      <path id="Path_10" data-name="Path 10" d="M102.209,500.822a8.787,8.787,0,0,1-1.264.493,4.411,4.411,0,0,1-1.269.177,4.723,4.723,0,0,1-1.571-.252,3.18,3.18,0,0,1-1.223-.761,3.381,3.381,0,0,1-.8-1.288,5.3,5.3,0,0,1-.283-1.817,4.194,4.194,0,0,1,1.066-3.042,3.718,3.718,0,0,1,2.81-1.1,4.726,4.726,0,0,1,1.334.191,6.881,6.881,0,0,1,1.2.467v1.474h-.07a5.129,5.129,0,0,0-1.257-.72,3.5,3.5,0,0,0-1.264-.252,2.236,2.236,0,0,0-1.786.759,4.1,4.1,0,0,0-.015,4.42,2.221,2.221,0,0,0,1.8.766,3.344,3.344,0,0,0,.822-.1,3.634,3.634,0,0,0,.749-.273c.193-.1.377-.2.546-.312s.3-.2.4-.282h.07Z" transform="translate(-80.977 -458.861)" fill="#191717" fill-rule="evenodd"/>
      <path id="Path_11" data-name="Path 11" d="M120.6,497.681h-1.334v-4.5a8.02,8.02,0,0,0-.063-1.022,1.876,1.876,0,0,0-.235-.747,1.082,1.082,0,0,0-.512-.442,2.184,2.184,0,0,0-.865-.145,2.776,2.776,0,0,0-1.141.268,5.814,5.814,0,0,0-1.143.687v5.9H113.97v-11.02H115.3v4a5.377,5.377,0,0,1,1.29-.807,3.409,3.409,0,0,1,1.37-.29,2.459,2.459,0,0,1,1.957.771,3.277,3.277,0,0,1,.674,2.221Z" transform="translate(-91.042 -455.223)" fill="#191717" fill-rule="evenodd"/>
      <path id="Path_12" data-name="Path 12" d="M141.166,501.282h-1.334v-4.5a8.024,8.024,0,0,0-.063-1.022,1.876,1.876,0,0,0-.235-.747,1.082,1.082,0,0,0-.512-.442,2.186,2.186,0,0,0-.865-.145,2.777,2.777,0,0,0-1.141.268,5.808,5.808,0,0,0-1.143.686v5.9H134.54v-7.9h1.334v.88a5.375,5.375,0,0,1,1.29-.807,3.405,3.405,0,0,1,1.37-.29,2.459,2.459,0,0,1,1.958.771,3.277,3.277,0,0,1,.674,2.221Z" transform="translate(-102.436 -458.825)" fill="#191717" fill-rule="evenodd"/>
      <path id="Path_13" data-name="Path 13" d="M161.167,497.333a4.44,4.44,0,0,1-.991,3.049,3.722,3.722,0,0,1-5.316,0,5.21,5.21,0,0,1,0-6.1,3.711,3.711,0,0,1,5.316,0,4.444,4.444,0,0,1,.991,3.05Zm-1.377,0a3.58,3.58,0,0,0-.6-2.269,2.252,2.252,0,0,0-3.342,0,4.554,4.554,0,0,0,0,4.512,2.209,2.209,0,0,0,3.335.007A3.548,3.548,0,0,0,159.79,497.333Z" transform="translate(-113.146 -458.825)" fill="#191717" fill-rule="evenodd"/>
      <rect id="Rectangle_1" data-name="Rectangle 1" width="1.334" height="11.019" transform="translate(50.08 31.438)" fill="#191717"/>
      <path id="Path_14" data-name="Path 14" d="M189.814,497.333a4.44,4.44,0,0,1-.991,3.049,3.722,3.722,0,0,1-5.316,0,5.21,5.21,0,0,1,0-6.1,3.711,3.711,0,0,1,5.316,0,4.444,4.444,0,0,1,.991,3.05Zm-1.377,0a3.58,3.58,0,0,0-.6-2.269,2.252,2.252,0,0,0-3.342,0,4.554,4.554,0,0,0,0,4.512,2.209,2.209,0,0,0,3.335.007A3.548,3.548,0,0,0,188.437,497.333Z" transform="translate(-129.014 -458.825)" fill="#191717" fill-rule="evenodd"/>
      <path id="Path_15" data-name="Path 15" d="M209.225,500.38a4.092,4.092,0,0,1-.916,2.948,3.779,3.779,0,0,1-2.817.94,8.287,8.287,0,0,1-1.232-.089,9.9,9.9,0,0,1-1.182-.249v-1.358h.07q.326.124,1.037.31a5.628,5.628,0,0,0,1.421.184,3.339,3.339,0,0,0,1.129-.162,1.654,1.654,0,0,0,.7-.45,1.583,1.583,0,0,0,.355-.662,3.293,3.293,0,0,0,.106-.865v-.715a5.243,5.243,0,0,1-1.153.718,3.584,3.584,0,0,1-1.4.237,2.755,2.755,0,0,1-2.252-1.022,4.449,4.449,0,0,1-.834-2.883,4.861,4.861,0,0,1,.288-1.759,4.007,4.007,0,0,1,.783-1.279,3.22,3.22,0,0,1,1.121-.78,3.339,3.339,0,0,1,1.312-.281,4.109,4.109,0,0,1,1.153.138,5.047,5.047,0,0,1,.984.421l.085-.341h1.249v7Zm-1.334-1.266v-4.3a5.389,5.389,0,0,0-.988-.344,4.236,4.236,0,0,0-.913-.1,2.158,2.158,0,0,0-1.73.735,3.189,3.189,0,0,0-.631,2.134,3.57,3.57,0,0,0,.469,2.013,1.744,1.744,0,0,0,1.554.687,3.267,3.267,0,0,0,1.165-.223A4.281,4.281,0,0,0,207.891,499.114Z" transform="translate(-139.943 -458.825)" fill="#191717" fill-rule="evenodd"/>
      <path id="Path_16" data-name="Path 16" d="M225.049,488.949h-1.508v-1.377h1.508v1.377Zm-.087,9.236h-1.334v-7.9h1.334Z" transform="translate(-151.736 -455.728)" fill="#191717" fill-rule="evenodd"/>
      <path id="Path_17" data-name="Path 17" d="M238.6,497.468h-5.829a3.329,3.329,0,0,0,.22,1.266,2.334,2.334,0,0,0,.6.884,2.413,2.413,0,0,0,.872.508,3.489,3.489,0,0,0,1.116.169,4.409,4.409,0,0,0,1.624-.321,4.04,4.04,0,0,0,1.165-.636h.07v1.452a11.1,11.1,0,0,1-1.373.474,5.535,5.535,0,0,1-1.472.191,4.243,4.243,0,0,1-3.069-1.063,3.992,3.992,0,0,1-1.1-3.021,4.323,4.323,0,0,1,1.059-3.071,3.623,3.623,0,0,1,2.784-1.138,3.2,3.2,0,0,1,2.467.933,3.755,3.755,0,0,1,.868,2.651v.723Zm-1.29-1.015a2.341,2.341,0,0,0-.529-1.617,2.032,2.032,0,0,0-1.583-.572,2.32,2.32,0,0,0-1.706.628,2.449,2.449,0,0,0-.72,1.561Z" transform="translate(-156.1 -458.825)" fill="#191717" fill-rule="evenodd"/>
      <path id="Path_18" data-name="Path 18" d="M257.022,499.006a2.147,2.147,0,0,1-.894,1.774,3.9,3.9,0,0,1-2.445.694,5.909,5.909,0,0,1-1.609-.208,7.169,7.169,0,0,1-1.228-.459v-1.493h.07a5.306,5.306,0,0,0,1.4.761,4.255,4.255,0,0,0,1.472.283,2.731,2.731,0,0,0,1.368-.286.959.959,0,0,0,.493-.9.9.9,0,0,0-.269-.706,2.4,2.4,0,0,0-1.029-.411c-.189-.044-.435-.092-.737-.15s-.58-.116-.831-.184a2.728,2.728,0,0,1-1.469-.81,2.005,2.005,0,0,1-.435-1.31,2.132,2.132,0,0,1,.2-.921,2.195,2.195,0,0,1,.614-.771,2.951,2.951,0,0,1,1.01-.527,4.574,4.574,0,0,1,1.37-.193,6.173,6.173,0,0,1,1.438.174,5.258,5.258,0,0,1,1.208.42v1.421h-.07a4.784,4.784,0,0,0-1.237-.638,4.218,4.218,0,0,0-1.428-.261,2.492,2.492,0,0,0-1.228.28.9.9,0,0,0-.5.839.892.892,0,0,0,.3.735,2.37,2.37,0,0,0,.959.4c.244.056.517.111.822.17s.556.108.759.154a2.836,2.836,0,0,1,1.426.728A1.926,1.926,0,0,1,257.022,499.006Z" transform="translate(-166.861 -458.843)" fill="#191717" fill-rule="evenodd"/>
    </g>
  </g>
</svg>
